<svg xmlns="http://www.w3.org/2000/svg" viewBox="0 0 379.52 631.38"><defs><style>.cls-1{fill:#9e9247;}</style></defs><g id="Layer_2" data-name="Layer 2"><g id="Layer_1-2" data-name="Layer 1"><path class="cls-1" d="M377.66,378.25c-7-25.57-29.16-42.18-57-42.32-34.35-.17-68.67,0-103,0h-6.84V181.5c2.24-.4,4.15-.82,6.09-1.08C294.46,170,352.82,101.06,350.2,23,349.73,8.44,341.33.21,326.73,0c-38.57-.5-73,11.28-102.46,36.21-28.05,23.71-46.12,53.62-53.1,89.84C169.45,135,169,144.16,168,153.19c-.66.57-1.32,1.14-2,1.68-1.63-2.43-2.81-5.45-5-7.17-8.78-6.91-17.39-14.16-26.89-19.89C108.3,112.24,79.54,107.88,50,108c-12.27,0-21.92,8.89-21.7,20.22.23,12.9.42,26,2.59,38.69,10.26,59.94,55.27,106.63,114.51,119.56,7.55,1.65,15.26,2.64,22.86,3.94v45.53h-7.74c-34.32,0-68.65-.22-103,0-27.3.22-48.34,16.49-55.58,42.3-6.58,23.52,4.06,49.33,25.74,63a10,10,0,0,1,4,5.82Q45.44,507.62,58.81,568.2c8.63,39.19,38.12,63.11,78.08,63.16q53,.06,105.92-.05A103.34,103.34,0,0,0,258,630.18,75.06,75.06,0,0,0,319.79,573q13.9-61.68,27.67-123.38c.92-4.13,2.36-7.18,6.4-9.7C374.05,427.27,383.91,401.09,377.66,378.25Z"/></g></g></svg>