<svg xmlns="http://www.w3.org/2000/svg" viewBox="0 0 419.84 140.03"><defs><style>.cls-1{fill:#9e914b;}</style></defs><g id="Layer_2" data-name="Layer 2"><g id="Layer_1-2" data-name="Layer 1"><path class="cls-1" d="M88.2,93H74.26V58.5c0-3.6,3.2-5.18,9.4-5.18,11.7,0,20.23,7.58,20.23,20.11C103.89,86.38,98.15,93,88.2,93Z"/><path class="cls-1" d="M83.88,96.18l19.48,41.39H89.43q-4.26,0-8.41-.37c-5-1.64-6.76-5.43-6.76-11.11V96.18Z"/><path class="cls-1" d="M172.55,99.79H150.66c0-9,6.06-17.44,12.53-17.44C170,82.35,172.55,90.16,172.55,99.79Z"/><path class="cls-1" d="M187.64,82.81v11c-3.95-9-12.58-14-24-14-15,0-28.29,13.77-28.29,31.05,0,11.61,5.52,21.62,14.65,26.68H130.61c-6.6-1.86-10.83-7.83-13.74-13.61L102.19,95c11.76-2.58,22.25-9.41,22.25-21.15,0-16.64-21.74-24.24-40.58-24.24H42.59v1.74c9.35.36,12.4,4.56,12.4,12v62.73a17.3,17.3,0,0,1-.6,4.88C22.41,118.35,0,89,0,54.76V0H98.21c34,0,63.49,17.52,78.63,43.34A78.45,78.45,0,0,1,185.06,63,77.17,77.17,0,0,1,187.64,82.81Z"/><path class="cls-1" d="M150.7,103h36.94v19.26a23.63,23.63,0,0,1-14.14,4.62C159.66,126.89,150.7,117.85,150.7,103Z"/><path class="cls-1" d="M266.89,110.12c-4.08,6.45-7.22,22.19-7.07,29.91h-.33a21.77,21.77,0,0,0-11.55-3.48c-4.05,0-11.07,1.36-18.16,1.38H192V136.4c8.23-.32,10.92-4,10.92-10.58V70.55C202.94,64,200.25,60.29,192,60V58.44h36.91V60c-6.71,0-9,4-9,10.58v54.5c0,6.42,2.46,10.45,9,10.45,12.17,0,16.07-26,38-26Z"/><path class="cls-1" d="M320.36,120.25c-2.13,8.68-10.55,18.81-23.1,18.81-15.27,0-25.44-11.84-25.44-26.64,0-15.22,11.73-27.36,24.93-27.36,13,0,22,7.45,23.09,20.42H285.31c0,13.07,7.89,21,20.09,21A20.74,20.74,0,0,0,320.36,120.25Zm-35.09-17.6h19.29c0-8.49-2.26-15.37-8.25-15.37C290.61,87.28,285.27,94.73,285.27,102.65Z"/><path class="cls-1" d="M382.82,132.73c-2.9,3.58-8.34,6.3-12.75,6.3-7.78,0-10.34-4.79-11-8.66-3.78,3.33-9.32,8.63-18.27,8.63-7.68,0-13.82-4.64-13.82-12.15,0-10.55,9.73-15,15.74-17.4l16.34-7.14v-8.1c0-4.72-.57-7.3-4-7.3-6.76,0-7.49,16-16.72,16-3.95,0-7.11-2.49-7.11-6.23,0-8.34,14.42-11.67,23.79-11.67,8.82,0,19.49,5.77,19.49,13.45V128c0,4.71,2.22,5.35,4.29,5.35a6.48,6.48,0,0,0,3.36-1.26Zm-32-1.14c3.95,0,5.84-2.27,8.3-4.22V105.13l-7.9,3.71A14.68,14.68,0,0,0,343,122.25C343,127.47,345.51,131.59,350.79,131.59Z"/><path class="cls-1" d="M419.49,86.41v2.15h-8.95V127c0,5.86,2.15,9.39,7.95,9.39v1.53H387.11V136.4c5.81,0,8-3.53,8-9.11V88.56h-9V86.41h9c0-3.8-2.26-7.19-2.26-14.56s6.7-14.39,15.88-14.39c6.59,0,11.15,3.51,11.15,8,0,4.63-3.14,7-6.92,7-5.19,0-8.88-4.81-13.18-4.81-2.78,0-4.51,1.76-4.51,4C395.23,78.34,409.33,86.41,419.49,86.41Z"/></g></g></svg>