<svg xmlns="http://www.w3.org/2000/svg" viewBox="0 0 878.53 189.02"><defs><style>.cls-1{fill:#9e914b;}</style></defs><g id="Layer_2" data-name="Layer 2"><g id="Layer_1-2" data-name="Layer 1"><path class="cls-1" d="M81.36,0H0V50.46A66.58,66.58,0,0,0,9.26,84.35c13.21,22.52,38.44,36.51,65.85,36.51h81.36V70.41C156.47,31.58,122.77,0,81.36,0Z"/><path class="cls-1" d="M292.13,117a72.45,72.45,0,0,0,25.52-25.49,68,68,0,0,0,7-16.87,66.44,66.44,0,0,0,2.22-17V7.2H245.55c-41.42,0-75.11,31.58-75.11,70.4v31.46h0v74.62h23V132.06h63c31.07,0,56.34,23,56.34,51.32h23C335.76,154.43,318,129.31,292.13,117ZM193.44,77.6c0-26.14,23.37-47.4,52.11-47.4h58.36V57.65a43.49,43.49,0,0,1-1.45,11.14,44.6,44.6,0,0,1-4.65,11.12c-9.1,15.51-26.73,25.15-46,25.15H193.44Z"/><path class="cls-1" d="M406.35,48.71c-40.66,0-67.87,26.63-67.87,71.3,0,43.81,26.92,69,68.15,69,34.08,0,53.27-16.9,60.14-43.24l-22-6.59c-4.58,15.75-14,28.07-38.09,28.07-25.48,0-40.66-14.32-43.23-40.38H467.05c.58-6.3.58-11.74.58-16C467.63,74.19,446.15,48.71,406.35,48.71ZM364,107.41c3.44-24.91,18.61-37.22,41.52-37.22,24.63,0,36.94,13.45,38.66,37.22Z"/><rect class="cls-1" x="483.37" y="10.34" width="24.91" height="175.53"/><path class="cls-1" d="M591.9,48.71C551.24,48.71,524,75.34,524,120c0,43.81,26.92,69,68.15,69,34.08,0,53.26-16.9,60.14-43.24l-22.05-6.59c-4.58,15.75-14,28.07-38.09,28.07-25.48,0-40.66-14.32-43.23-40.38H652.6c.58-6.3.58-11.74.58-16C653.18,74.19,631.7,48.71,591.9,48.71Zm-42.38,58.7C553,82.5,568.13,70.19,591,70.19c24.63,0,36.94,13.45,38.66,37.22Z"/><path class="cls-1" d="M726.19,49.28C691,49.28,672.65,66.75,668.06,98l23.77,3.44c3.72-22.05,14.32-30.93,33.5-30.93,21.19,0,29.21,11.46,29.21,32.36V110H711.3c-32.35,0-47.24,17.46-47.24,40.94,0,25.2,16.89,37.8,43,37.8,23.19,0,41.23-12.31,47.24-36.94h.29v34.08h24.91V102.54C779.45,68.18,763.42,49.28,726.19,49.28ZM754.54,136c0,18.33-15.17,31.79-39.8,31.79-19.47,0-26.06-9.74-26.06-20,0-11.75,9.16-18,26.06-18h39.8Z"/><path class="cls-1" d="M859.92,24.94a82.94,82.94,0,0,1,16.32,1.72l2.29-18.9a94,94,0,0,0-21.48-2.29c-30.35,0-44.95,17.75-44.95,44.1v2.57H788.9V73.62h23.2V185.87H837V73.62h39.23V52.14H837V49.57C837,33.53,843.6,24.94,859.92,24.94Z"/></g></g></svg>